<svg width="16" height="16" viewBox="0 0 16 16" fill="none" xmlns="http://www.w3.org/2000/svg">
<g clip-path="url(#clip0_1707_1942)">
<path d="M13.9304 12.2036C14.3517 12.5608 14.4076 13.1977 13.9976 13.5678C13.1174 14.3621 12.0576 14.9398 10.9027 15.2474C9.42436 15.6411 7.86093 15.5733 6.4222 15.053C4.98346 14.5328 3.73825 13.585 2.8536 12.3368C1.96895 11.0886 1.48719 9.59966 1.47295 8.06982C1.45871 6.53997 1.91267 5.04237 2.77392 3.77791C3.63518 2.51345 4.86253 1.54262 6.29133 0.995668C7.72013 0.448717 9.28203 0.351805 10.7675 0.717933C11.9279 1.00394 12.9982 1.56181 13.893 2.33964C14.3099 2.70197 14.2658 3.33986 13.8513 3.70481L12.7835 4.64488C12.369 5.00983 11.7418 4.95674 11.2872 4.64323C10.8832 4.36473 10.4301 4.15983 9.9484 4.04111C9.14083 3.84206 8.29171 3.89475 7.51494 4.1921C6.73818 4.48945 6.07092 5.01724 5.6027 5.70466C5.13448 6.39208 4.88769 7.20626 4.89543 8.03795C4.90317 8.86965 5.16508 9.67909 5.64602 10.3577C6.12696 11.0363 6.80392 11.5515 7.58609 11.8344C8.36825 12.1172 9.21821 12.1541 10.0219 11.94C10.5013 11.8124 10.9506 11.5991 11.3493 11.3131C11.798 10.9912 12.4241 10.9264 12.8453 11.2836L13.9304 12.2036Z" fill="white"/>
<path fill-rule="evenodd" clip-rule="evenodd" d="M14.82 12.6967C15.1658 12.2661 15.0092 11.6462 14.5365 11.3606L13.3187 10.6251C12.846 10.3396 12.2382 10.5032 11.8464 10.8924C11.4785 11.258 11.0419 11.5522 10.5584 11.7564C9.76563 12.091 8.88725 12.1663 8.04905 11.9714C7.91334 11.9398 7.7798 11.9015 7.64891 11.8565C6.71019 12.484 5.6708 12.7595 4.86361 12.8799C4.42523 12.9453 4.04662 12.9663 3.77604 12.9709C3.64054 12.9732 3.53151 12.9714 3.45491 12.9689C3.41659 12.9677 3.38633 12.9663 3.36488 12.9651L3.35073 12.9643C4.3828 14.1331 5.75397 14.9516 7.27379 15.3051C8.81558 15.6636 10.4313 15.5252 11.8896 14.9095C13.0394 14.4241 14.0449 13.6617 14.82 12.6967ZM3.32943 12.9401C3.33238 12.8991 3.34081 12.7845 3.36461 12.4638C2.87713 12.3543 2.87717 12.3542 2.8772 12.354L2.87729 12.3536L2.87749 12.3527L2.87805 12.3503L2.87979 12.3428L2.88577 12.3179C2.8909 12.297 2.89834 12.2676 2.90829 12.2305C2.92818 12.1564 2.95815 12.0514 2.99973 11.9222C3.08275 11.6642 3.21282 11.3075 3.4027 10.9064C3.67631 10.3284 4.08194 9.64179 4.66342 9.02677C3.83164 8.66554 3.15305 8.1437 2.65781 7.68081C2.33401 7.37816 2.08216 7.09468 1.91032 6.88563C1.82425 6.78093 1.75787 6.69442 1.71218 6.63289C1.68933 6.60211 1.67162 6.57753 1.65919 6.56001L1.6445 6.5391L1.64014 6.5328L1.63872 6.53072L1.6382 6.52995L1.63798 6.52964C1.63789 6.5295 1.6378 6.52937 2.05163 6.2481C1.83429 5.79822 1.83443 5.79815 1.83459 5.79808L1.83493 5.79791L1.83577 5.79751L1.83804 5.79642L1.84498 5.79313L1.86818 5.78234C1.88774 5.77337 1.91539 5.76091 1.95062 5.74565C2.02105 5.71514 2.12192 5.67331 2.24896 5.62554C2.50261 5.53016 2.86288 5.41022 3.29508 5.30954C3.85733 5.17856 4.55585 5.07677 5.30681 5.11194C5.0842 4.40603 5.00367 3.71614 4.98525 3.14727C4.97093 2.70489 4.99389 2.32683 5.02064 2.05782C5.03404 1.9231 5.04846 1.81511 5.05979 1.73938C5.06546 1.7015 5.07037 1.67163 5.07401 1.65047L5.07845 1.62533L5.07984 1.6178L5.08031 1.61533L5.08048 1.61441L5.08055 1.61404C5.08059 1.61387 5.08061 1.61372 5.57219 1.70853C5.73563 1.23667 5.73577 1.23672 5.73593 1.23678L5.73629 1.2369L5.73717 1.23721L5.73956 1.23804L5.74679 1.2406L5.77085 1.24934C5.79105 1.25678 5.81945 1.26747 5.85519 1.28152C5.92664 1.3096 6.02764 1.35115 6.15136 1.40694C6.39839 1.51834 6.73826 1.68754 7.11535 1.9211C7.64706 2.25043 8.26783 2.717 8.80468 3.34262C9.17384 2.7696 9.60563 2.29909 9.99369 1.93813C10.3178 1.63667 10.6179 1.40559 10.8382 1.24901C10.9486 1.1706 11.0395 1.11051 11.104 1.0693C11.1363 1.04868 11.1621 1.03276 11.1804 1.0216L11.2023 1.00843L11.2089 1.00453L11.211 1.00326L11.2118 1.00279L11.2122 1.0026C11.2123 1.00251 11.2124 1.00243 11.4639 1.43531C11.9271 1.24849 11.9271 1.24864 11.9272 1.24879L11.9273 1.24915L11.9277 1.25001L11.9286 1.25236L11.9314 1.2595L11.9406 1.28338C11.9483 1.30349 11.9589 1.33192 11.9718 1.36809C11.9976 1.4404 12.0326 1.54385 12.0718 1.67377C12.1502 1.9332 12.2459 2.30058 12.3176 2.73831C12.4163 3.34105 12.4722 4.09382 12.364 4.8885C12.5229 4.85209 12.6731 4.77984 12.8028 4.66693L13.876 3.73303C14.2926 3.37048 14.3403 2.73285 13.9256 2.36812C13.311 1.82758 12.6123 1.39162 11.8579 1.07718L11.9271 1.24849L11.4639 1.43531L11.2124 1.00243L11.3888 0.89986C11.1499 0.818537 10.9061 0.749064 10.6585 0.691936C9.11608 0.336119 7.50062 0.477444 6.0434 1.09568C5.93871 1.1401 5.83523 1.18681 5.73301 1.23576L5.73563 1.23667L5.57219 1.70853L5.08061 1.61372L5.08603 1.58561C4.04969 2.21354 3.17609 3.0863 2.54595 4.13376C2.2265 4.66476 1.97603 5.23 1.79768 5.81591L1.83429 5.79822L2.05163 6.2481L1.6378 6.52937L1.6227 6.50716C1.48062 7.20668 1.43825 7.92713 1.50059 8.647C1.61702 9.99169 2.09369 11.2756 2.87449 12.3661L2.87713 12.3543L3.36461 12.4638L3.32928 12.9399C3.32933 12.94 3.32938 12.94 3.32943 12.9401ZM11.38 4.70477C11.4623 4.05644 11.4181 3.427 11.3316 2.89836C11.2904 2.64703 11.2403 2.42209 11.1915 2.23335C11.0376 2.35231 10.8605 2.49901 10.6745 2.67209C10.3062 3.01467 9.91297 3.45086 9.59189 3.96993C9.69139 3.98522 9.79055 4.00423 9.88915 4.02697C10.4005 4.14494 10.8812 4.35975 11.3065 4.65664C11.3305 4.67343 11.3551 4.68947 11.38 4.70477ZM8.07155 4.02344C7.61746 3.48534 7.07528 3.0713 6.58816 2.76959C6.37165 2.63549 6.16913 2.52551 5.99477 2.43829C5.98335 2.63245 5.97762 2.86231 5.98584 3.1163C6.0034 3.65861 6.08404 4.29431 6.29762 4.92278C6.61876 4.64361 6.98359 4.41472 7.38016 4.24647C7.60467 4.15122 7.83608 4.07679 8.07155 4.02344ZM5.35663 6.11598C4.69064 6.0723 4.05212 6.15932 3.52102 6.28304C3.27382 6.34063 3.05339 6.40535 2.8687 6.46639C2.99804 6.61132 3.15648 6.77726 3.34168 6.95036C3.75013 7.33213 4.276 7.73684 4.89539 8.03331C4.88993 7.36648 5.04817 6.70799 5.35663 6.11598ZM5.31266 9.79711C4.86612 10.2906 4.53835 10.8432 4.30563 11.3348C4.19702 11.5642 4.11065 11.777 4.04361 11.9596C4.23754 11.9485 4.46602 11.9276 4.71675 11.8901C5.28948 11.8047 5.95981 11.6359 6.59707 11.3139C6.3392 11.129 6.10233 10.9137 5.89206 10.6712C5.66072 10.4044 5.46645 10.1103 5.31266 9.79711Z" fill="#201E1E"/>
</g>
<defs>
<clipPath id="clip0_1707_1942">
<rect width="16" height="16" fill="white"/>
</clipPath>
</defs>
</svg>
